<?xml version="1.0" standalone="no"?>
<!DOCTYPE svg PUBLIC "-//W3C//DTD SVG 20010904//EN"
 "http://www.w3.org/TR/2001/REC-SVG-20010904/DTD/svg10.dtd">
<svg version="1.0" xmlns="http://www.w3.org/2000/svg"
 width="1920.000000pt" height="1080.000000pt" viewBox="0 0 1920.000000 1080.000000"
 preserveAspectRatio="xMidYMid meet">

<g transform="translate(0.000000,1080.000000) scale(0.100000,-0.100000)"
fill="#000000" stroke="none">
<path d="M0 5400 l0 -5400 9600 0 9600 0 0 5400 0 5400 -9600 0 -9600 0 0
-5400z m3980 2267 c-25 -23 -59 -54 -76 -68 -32 -26 -64 -77 -64 -101 0 -7
-21 -47 -46 -88 -42 -69 -45 -79 -39 -120 10 -67 7 -90 -20 -142 -35 -67 -32
-90 6 -42 41 52 39 51 50 32 18 -33 70 -32 142 1 36 17 70 31 74 31 4 0 19 19
33 41 14 23 39 48 55 56 17 9 62 41 100 73 39 31 88 66 111 78 41 21 91 75
133 145 13 21 25 36 27 34 8 -7 -23 -82 -50 -121 -14 -21 -26 -42 -26 -45 0
-4 -14 -15 -31 -25 -16 -10 -70 -58 -118 -106 -86 -88 -88 -91 -116 -182 -28
-93 -28 -93 -86 -132 -34 -22 -71 -57 -87 -82 -27 -43 -35 -48 -125 -70 l-29
-7 20 39 c11 22 23 55 27 74 4 19 12 42 19 51 6 8 0 3 -14 -12 -48 -53 -89
-149 -96 -229 -7 -79 -14 -89 -69 -115 -16 -7 -45 -25 -64 -39 -19 -14 -49
-31 -68 -37 -25 -8 -44 -27 -73 -72 -30 -48 -40 -58 -45 -44 -12 29 1 98 38
202 22 62 32 104 26 110 -12 12 -12 115 0 115 5 0 19 -12 30 -26 32 -41 25
-14 -12 44 -32 51 -82 92 -112 92 -18 0 -19 21 -4 75 13 48 87 123 129 131 19
4 37 19 52 43 36 54 68 128 68 155 0 17 19 40 65 81 36 31 65 63 65 70 0 20
96 101 165 139 81 45 88 44 35 -7z m-2288 -142 c12 -33 31 -71 43 -85 13 -14
26 -41 30 -60 4 -19 14 -48 23 -65 9 -16 19 -55 24 -85 5 -30 12 -71 16 -90
13 -63 6 -232 -11 -292 -13 -42 -17 -96 -17 -219 0 -90 -5 -200 -12 -245 -9
-65 -9 -110 2 -220 7 -77 16 -218 19 -314 6 -166 6 -170 12 -80 3 52 2 196 -4
320 -10 252 -3 318 36 335 19 9 22 17 22 75 0 38 -8 89 -19 122 -19 54 -19 59
-3 108 9 29 17 62 17 74 0 35 120 219 134 205 3 -3 -11 -36 -30 -75 -26 -52
-38 -90 -46 -156 -10 -84 -9 -88 18 -149 16 -35 36 -71 45 -80 11 -11 18 -45
22 -125 6 -86 11 -115 27 -136 11 -15 20 -30 20 -32 0 -3 16 -30 35 -61 41
-64 80 -94 98 -76 19 19 27 13 49 -36 11 -27 49 -107 84 -179 50 -104 68 -133
87 -138 13 -3 60 -47 105 -98 107 -124 177 -191 200 -193 15 -1 21 10 31 56
10 48 9 69 -3 121 -13 53 -47 498 -46 607 0 34 0 34 20 16 11 -10 36 -50 55
-88 37 -74 46 -65 17 18 -19 54 -94 160 -119 170 -24 8 -51 -4 -58 -26 -9 -26
-25 -24 -25 4 0 36 23 98 60 164 26 46 41 63 56 63 25 0 134 111 160 163 16
29 41 56 55 57 3 0 6 -94 7 -208 1 -115 7 -260 13 -323 6 -63 15 -222 19 -354
4 -149 5 -32 3 308 -3 445 -7 555 -19 589 l-14 41 37 41 c20 22 43 45 51 50 8
4 26 34 40 65 34 73 36 180 4 214 -11 12 -23 33 -27 46 -12 39 -86 112 -140
138 l-50 25 67 -6 c37 -3 80 -12 95 -20 53 -28 128 -110 153 -166 13 -30 31
-62 40 -70 45 -43 65 -122 75 -295 1 -22 9 -56 18 -75 18 -42 37 -102 37 -117
0 -11 -111 -53 -141 -53 -9 0 -29 -12 -44 -27 -32 -32 -85 -111 -85 -127 0 -6
8 1 18 16 27 41 108 108 130 108 21 0 21 0 2 -42 -26 -59 -36 -143 -20 -172 8
-17 9 -33 2 -58 -6 -23 -7 -109 -1 -234 4 -110 13 -350 19 -534 9 -277 13
-337 26 -351 19 -21 23 -121 7 -141 -7 -7 -12 -29 -11 -48 0 -19 0 -64 0 -100
-1 -36 0 -76 2 -90 2 -14 7 -54 11 -89 5 -40 15 -71 26 -82 10 -10 25 -31 33
-47 13 -25 79 -102 118 -137 6 -5 28 -27 49 -47 21 -21 40 -38 42 -38 2 0 9
114 16 253 9 177 10 295 3 398 -6 85 -6 166 -1 192 6 36 4 60 -10 104 -10 32
-22 87 -26 123 -4 36 -11 70 -16 76 -6 8 -2 31 10 65 14 35 17 57 11 63 -15
15 -12 52 4 66 8 6 22 34 31 61 9 27 20 51 24 53 4 3 30 -33 57 -79 27 -46 50
-82 52 -81 5 6 -39 119 -56 144 -11 15 -22 36 -26 48 -3 11 -19 30 -35 42 -21
15 -30 32 -35 66 -8 52 -30 83 -66 91 -20 5 -35 -2 -69 -34 -95 -88 -53 -2 89
182 15 18 31 27 51 27 16 0 57 17 93 39 60 36 156 76 156 64 0 -10 165 151
187 182 23 34 70 61 124 72 l33 6 -25 -32 c-72 -95 -72 -95 -114 -261 -9 -36
-21 -81 -26 -100 -13 -46 -16 -169 -5 -200 7 -20 -2 -16 -45 25 l-52 50 23
-40 c13 -22 48 -87 78 -145 57 -110 58 -118 29 -195 -12 -33 -15 -95 -15 -320
l0 -280 18 55 c16 50 54 131 116 250 15 30 23 62 24 98 0 64 13 92 43 92 35 0
177 56 206 82 14 12 44 39 66 59 22 21 56 46 75 56 34 19 56 49 185 248 54 84
137 155 287 245 84 50 177 131 218 192 21 30 18 28 -26 -13 -43 -39 -135 -111
-171 -133 -15 -9 79 146 113 187 14 16 34 47 45 68 11 22 37 52 57 67 57 41
94 87 147 187 27 50 56 102 66 116 10 14 26 45 35 70 21 51 85 120 164 174 30
20 72 54 93 73 20 20 37 31 37 26 0 -20 -78 -133 -103 -149 -34 -22 -71 -125
-64 -177 3 -22 1 -54 -5 -70 -19 -54 31 -198 83 -243 l24 -20 -16 20 c-26 32
-48 79 -59 129 -8 37 -7 52 5 76 19 36 28 39 19 6 -7 -27 25 -56 63 -56 15 0
31 -13 48 -37 14 -21 33 -49 44 -63 10 -14 31 -47 45 -73 15 -26 38 -52 50
-57 12 -4 29 -22 38 -39 13 -28 95 -91 117 -91 5 0 34 -11 65 -25 58 -26 123
-34 165 -20 33 10 111 84 111 104 0 9 5 23 10 31 9 13 12 12 25 -4 20 -27 19
-115 -1 -144 -16 -23 -64 -138 -64 -154 0 -15 69 -8 122 12 29 11 61 20 70 20
31 0 92 34 185 103 125 92 208 174 231 227 23 53 115 142 237 228 16 11 81 94
95 122 8 15 -11 1 -44 -32 -61 -61 -73 -69 -61 -40 13 32 16 136 4 162 -35 78
-30 74 -114 89 -58 10 -96 11 -138 4 -70 -11 -70 -1 -1 42 48 29 52 30 169 29
139 -2 224 -19 292 -61 27 -17 72 -38 101 -47 35 -12 52 -23 52 -35 0 -9 16
-41 36 -71 53 -80 59 -96 83 -198 19 -83 44 -152 56 -152 2 0 0 12 -5 28 -4
15 -11 54 -14 88 -3 33 -14 80 -25 105 -12 24 -21 53 -21 64 0 16 3 14 19 -10
28 -47 47 -59 184 -125 72 -35 154 -83 185 -109 36 -30 81 -56 120 -69 38 -13
81 -37 109 -61 30 -27 55 -41 73 -41 16 0 54 -13 85 -30 31 -16 61 -30 66 -30
5 0 18 19 30 43 12 23 45 67 73 98 77 85 141 160 145 173 2 6 20 36 40 66 20
30 54 93 74 140 47 107 40 98 119 154 38 26 88 72 113 101 45 52 97 84 212
130 70 29 72 11 3 -34 -36 -23 -89 -68 -118 -99 -53 -57 -175 -222 -205 -277
l-16 -30 -1 65 c-1 47 -4 59 -10 44 -5 -12 -8 -82 -7 -155 1 -132 0 -135 -31
-196 -17 -34 -36 -64 -42 -68 -18 -11 -11 -21 33 -40 l42 -19 -60 -8 c-53 -7
-180 -46 -173 -54 2 -1 30 4 63 12 60 15 128 12 175 -7 14 -5 43 -32 65 -60
22 -28 70 -84 107 -123 l67 -71 1 -95 c1 -81 -3 -109 -29 -188 -17 -51 -34
-111 -37 -135 -4 -23 -21 -80 -39 -127 -18 -47 -36 -103 -39 -125 -3 -22 -3
-31 1 -20 3 11 24 63 48 115 23 52 50 129 59 170 10 41 29 107 42 146 13 39
24 91 24 116 0 44 1 45 50 68 53 25 165 129 176 163 4 12 20 39 37 61 17 21
36 61 43 88 12 46 12 53 -12 106 -23 50 -25 66 -20 126 9 103 25 118 26 24 0
-65 3 -81 24 -105 12 -15 29 -39 36 -53 18 -34 16 -127 -4 -172 -9 -21 -16
-53 -16 -73 0 -20 -9 -48 -20 -63 -11 -15 -47 -88 -81 -162 -51 -113 -62 -147
-66 -206 -4 -47 -2 -74 6 -78 19 -12 13 -91 -9 -111 -24 -22 -94 -167 -115
-239 -9 -30 -23 -60 -31 -67 -28 -23 -44 -67 -44 -119 0 -33 -8 -67 -24 -98
-35 -71 -39 -88 -21 -106 20 -20 58 -21 93 -2 15 8 39 18 53 24 17 7 29 22 38
52 12 40 74 120 93 120 5 0 -3 -16 -17 -35 -15 -19 -36 -64 -46 -100 -21 -67
-22 -69 -136 -171 -38 -34 -56 -58 -64 -88 -6 -22 -19 -50 -29 -61 -46 -49
-100 -142 -100 -170 0 -16 -3 -41 -7 -53 -5 -22 -8 -21 -32 21 -38 65 -91 132
-91 115 0 -8 13 -35 30 -61 16 -26 39 -66 51 -89 12 -23 45 -65 73 -94 64 -64
109 -120 129 -159 23 -45 65 -81 81 -70 7 6 38 27 69 48 60 42 65 50 78 117
23 115 23 116 -1 133 -32 22 -13 43 59 63 31 9 69 25 85 36 27 19 31 20 55 5
27 -16 146 -35 274 -43 l68 -5 -16 25 c-20 29 -13 45 39 95 20 20 43 56 53 85
l17 51 8 -40 c4 -22 12 -67 17 -100 9 -52 10 -45 6 55 -5 112 -27 318 -45 410
-5 25 -6 137 -2 250 6 156 4 213 -5 237 -7 18 -13 46 -13 64 0 46 -29 151 -47
172 -14 14 -14 21 -4 45 47 101 50 199 10 291 -10 24 -19 50 -19 57 0 8 -4 14
-9 14 -12 0 -51 67 -51 89 0 9 11 27 25 39 17 15 24 29 21 45 -3 12 -8 51 -11
86 -4 39 -16 83 -31 110 -13 25 -24 51 -24 58 0 7 21 32 46 55 25 24 53 56 61
73 9 16 43 58 77 93 53 56 60 67 58 100 -11 207 -12 406 -3 415 8 8 11 -14 11
-78 1 -65 6 -105 21 -145 53 -143 60 -169 62 -220 1 -46 -5 -68 -38 -134 -25
-52 -40 -96 -43 -132 -2 -30 -7 -54 -11 -54 -16 1 -44 57 -51 103 l-8 52 -1
-58 c0 -32 4 -68 10 -80 13 -25 60 -77 69 -77 4 0 14 24 23 54 10 30 26 65 36
78 19 23 19 22 20 -62 1 -47 2 -98 2 -115 1 -16 -4 -61 -9 -100 -10 -61 -9
-72 5 -82 15 -11 15 -21 3 -97 -13 -87 -9 -233 10 -351 5 -33 10 -184 11 -335
1 -151 5 -286 10 -300 4 -14 6 148 3 370 -11 763 -17 690 66 768 36 32 61 65
65 83 4 16 11 29 16 29 14 0 10 60 -6 105 -16 44 -20 115 -6 115 4 0 11 -18
14 -41 3 -22 18 -59 33 -82 46 -68 61 -108 68 -187 4 -41 16 -96 26 -122 10
-27 14 -51 9 -54 -5 -3 -22 -31 -38 -63 -55 -111 -77 -283 -50 -386 6 -22 12
-69 14 -105 1 -37 8 -77 16 -91 11 -19 14 -96 15 -361 1 -185 5 -342 10 -349
4 -8 9 -21 9 -30 2 -26 34 -70 46 -63 5 3 27 -9 49 -28 21 -18 69 -58 106 -88
37 -30 103 -88 148 -127 123 -111 241 -162 311 -133 14 6 7 8 -25 7 -34 -1
-64 8 -122 36 -77 38 -115 67 -61 46 38 -14 63 -6 122 41 50 39 92 104 84 127
-2 6 12 36 31 67 20 30 36 58 36 62 0 4 29 51 64 104 75 111 97 184 95 308
l-2 77 -7 -85 c-11 -114 -27 -160 -90 -257 l-54 -82 -13 50 c-11 42 -11 55 2
78 12 24 13 65 4 282 -6 140 -12 306 -13 369 -5 173 -16 249 -36 268 -10 10
-24 38 -30 63 -7 26 -17 46 -23 46 -15 -1 -77 14 -77 19 0 11 68 98 115 149
31 33 72 87 92 120 38 65 105 211 131 289 12 37 23 52 46 62 17 7 43 28 58 47
l27 34 -34 54 c-98 156 -121 223 -132 399 -4 62 -2 78 11 89 14 12 16 8 16
-32 0 -57 41 -189 87 -282 42 -85 116 -165 153 -165 16 0 21 -3 12 -8 -10 -7
-7 -19 12 -53 13 -24 32 -73 41 -108 9 -36 31 -85 48 -110 18 -25 32 -53 32
-61 0 -8 34 -38 75 -65 72 -49 77 -55 137 -165 34 -63 74 -141 89 -173 15 -31
28 -56 30 -54 10 10 -33 132 -66 188 -40 67 -60 115 -78 184 -6 22 -16 59 -22
83 -6 24 -29 77 -51 118 -30 58 -39 86 -39 124 0 65 14 64 29 -3 9 -41 23 -65
62 -108 31 -34 70 -95 105 -164 48 -98 92 -181 162 -309 23 -43 51 -74 109
-123 74 -63 101 -83 115 -83 34 0 50 -29 78 -135 15 -61 35 -130 45 -155 31
-82 33 -116 15 -182 -13 -49 -15 -81 -9 -143 4 -44 8 -116 9 -160 0 -44 7 -98
15 -120 8 -22 15 -42 15 -44 0 -5 -109 93 -168 151 l-44 43 40 -60 c22 -33 58
-78 81 -99 29 -29 47 -58 62 -105 23 -70 65 -139 110 -181 14 -14 38 -49 53
-77 14 -29 39 -67 55 -85 16 -18 58 -73 94 -121 l66 -88 10 38 c14 48 14 80 1
88 -5 3 -10 30 -10 60 0 30 -4 56 -9 59 -5 3 -14 20 -20 37 -10 29 -9 31 23
44 38 16 97 78 125 132 10 21 29 47 41 58 12 11 26 29 32 40 11 24 20 38 82
135 27 41 62 106 78 145 16 38 36 84 44 102 8 17 14 37 14 43 0 13 56 114 115
208 34 55 62 154 70 251 l4 56 -8 -47 c-21 -108 -63 -218 -104 -270 -24 -30
-30 -20 -22 40 12 84 6 209 -12 270 -8 30 -12 63 -10 74 6 20 -4 91 -24 177
-19 83 -150 247 -206 257 l-33 6 6 52 c3 28 13 76 22 106 13 47 20 138 24 335
1 17 -3 65 -7 107 -7 72 -11 81 -51 129 -24 28 -50 59 -57 68 -18 26 -51 41
-89 41 -25 0 -29 3 -18 10 8 5 30 10 49 10 35 0 83 -36 196 -148 46 -46 75
-118 75 -186 0 -25 4 -65 9 -88 6 -24 15 -68 22 -98 6 -30 24 -74 39 -98 16
-24 32 -62 35 -84 5 -27 35 -83 83 -157 41 -64 81 -129 88 -146 l13 -30 1 29
c0 28 -46 116 -112 213 -15 23 -28 44 -28 48 0 3 34 -18 76 -47 130 -91 159
-106 234 -122 14 -3 45 -23 68 -46 66 -61 128 -110 139 -110 6 0 13 -8 16 -17
4 -10 13 -36 21 -58 18 -48 8 -63 -27 -40 -16 10 -34 14 -48 10 -27 -9 -55
-73 -64 -148 -4 -31 -12 -60 -17 -63 -11 -7 -7 -344 5 -344 4 0 7 -18 7 -40 0
-23 9 -58 20 -80 28 -55 26 -95 -7 -128 -15 -15 -38 -47 -51 -72 -13 -25 -48
-73 -77 -107 -34 -40 -57 -78 -65 -110 -13 -47 -13 -47 -20 -18 l-6 30 -12
-40 c-7 -22 -12 -47 -12 -55 0 -29 -38 -72 -106 -122 -63 -46 -134 -132 -120
-146 3 -3 6 -1 6 5 0 6 25 32 57 59 59 51 61 50 37 -23 -4 -10 14 15 39 55 47
74 86 122 219 270 43 47 84 100 93 119 10 22 23 33 33 31 32 -4 72 12 169 71
54 32 108 62 120 65 12 4 28 18 35 30 7 13 28 48 45 77 18 30 46 96 63 148 17
52 36 104 43 115 10 19 12 18 19 -19 4 -22 5 -60 2 -85 -4 -40 -3 -42 7 -20 6
14 15 97 19 185 8 175 8 175 58 255 53 83 68 128 75 215 6 65 4 85 -9 103 -22
31 -70 29 -106 -5 -19 -19 -28 -22 -28 -12 0 27 51 118 70 124 27 9 170 154
170 174 0 9 12 48 25 86 14 39 25 80 25 93 0 12 7 25 15 28 8 4 15 11 15 16 0
16 149 201 150 185 0 -4 -10 -24 -23 -45 -12 -20 -36 -68 -52 -107 -29 -68
-30 -75 -31 -245 -1 -127 -6 -191 -18 -235 -9 -32 -16 -68 -16 -79 0 -32 -69
-346 -96 -435 -14 -45 -23 -85 -21 -87 9 -9 139 423 156 522 6 34 23 101 38
150 17 60 26 112 26 159 -1 77 14 117 50 137 12 7 24 13 27 13 17 2 61 33 97
68 41 39 42 40 67 23 27 -17 30 -14 27 29 -1 11 9 27 22 35 85 53 155 103 175
122 20 20 91 153 97 183 1 5 7 28 13 50 6 22 15 76 20 120 l8 80 19 -60 c13
-41 19 -88 19 -150 -1 -117 -18 -284 -31 -310 -12 -22 -46 -115 -69 -185 -7
-25 -14 -61 -14 -80 0 -19 -7 -57 -15 -83 -8 -26 -19 -92 -25 -145 -5 -53 -14
-115 -20 -137 -12 -50 -13 -185 -1 -185 11 0 21 51 21 114 0 28 5 58 10 66 8
12 10 9 10 -12 0 -15 11 -62 25 -105 14 -43 25 -90 25 -105 0 -15 4 -30 10
-33 5 -3 19 -27 30 -52 29 -65 67 -113 91 -113 11 0 32 -6 47 -14 l28 -14 31
61 c19 38 36 91 42 136 15 95 30 124 30 56 1 -152 7 -364 11 -367 25 -20 125
-81 161 -98 25 -12 52 -32 59 -44 7 -11 23 -70 36 -129 13 -60 37 -136 53
-171 17 -34 45 -102 62 -152 24 -71 40 -98 77 -136 25 -26 43 -50 40 -53 -9
-9 -220 64 -241 83 -16 15 -17 14 -11 -2 7 -19 167 -99 220 -110 27 -5 64 -2
254 23 87 12 97 8 151 -62 18 -25 48 -53 64 -63 17 -10 50 -37 75 -59 37 -34
122 -95 177 -129 19 -11 6 473 -13 495 -18 20 -17 79 1 103 8 11 15 28 15 38
0 34 40 0 66 -55 13 -29 21 -41 18 -27 -15 57 -44 110 -72 130 -21 16 -31 33
-35 61 -7 51 -37 92 -105 138 -31 22 -86 64 -121 95 -36 31 -74 56 -86 56 -12
0 -43 7 -69 16 -40 14 -55 15 -87 5 -44 -13 -59 -9 -59 17 0 40 -86 123 -174
169 -19 10 -72 47 -117 83 l-82 65 54 7 c30 4 81 5 114 3 l60 -5 -45 16 c-35
12 -82 14 -217 12 -205 -4 -208 -2 -143 98 40 60 66 135 79 224 4 25 14 59 23
75 8 17 23 55 33 85 10 30 24 59 31 63 23 13 17 77 -9 105 l-22 24 24 17 c35
23 123 50 216 66 44 7 100 21 125 30 86 31 205 94 230 121 34 36 90 70 136 83
29 8 65 36 138 108 84 83 107 100 155 115 31 10 66 18 78 18 27 0 103 29 103
39 0 4 25 18 55 30 50 21 60 22 108 11 65 -15 136 -59 160 -98 26 -45 21 -47
-24 -8 -92 78 -245 52 -331 -58 -16 -19 -52 -51 -81 -70 -29 -19 -63 -46 -75
-59 -27 -28 -41 -114 -23 -143 10 -16 10 -15 5 9 -8 37 1 70 32 106 26 32 58
43 48 17 -7 -17 51 -128 84 -162 12 -13 22 -28 22 -34 0 -12 61 -101 102 -148
30 -35 34 -52 17 -84 -6 -11 -12 -52 -14 -91 -4 -60 -9 -77 -35 -114 -18 -24
-43 -71 -56 -105 -34 -81 -49 -104 -102 -144 -62 -47 -86 -45 -39 4 44 45 75
124 83 207 12 138 14 147 32 133 42 -34 -30 61 -101 134 -74 76 -79 79 -97 63
-12 -11 -20 -13 -25 -6 -13 23 -44 9 -104 -46 -50 -45 -72 -58 -108 -63 l-45
-7 29 23 c33 27 22 30 -56 13 -36 -7 -55 -7 -70 1 -17 9 -26 7 -49 -10 -18
-14 -54 -25 -94 -30 -89 -11 -118 -28 -38 -22 50 4 60 2 60 -11 0 -9 -4 -19
-10 -22 -5 -3 -16 -27 -24 -53 -8 -26 -28 -77 -45 -113 l-32 -67 -57 31 c-31
16 -66 37 -77 46 -11 9 -6 1 10 -17 40 -44 142 -111 233 -152 95 -43 82 -51
-94 -53 -128 -2 -133 -3 -92 -15 29 -9 84 -12 168 -10 107 3 132 7 172 27 l46
24 39 -32 c54 -43 75 -74 123 -178 46 -100 68 -127 125 -154 l40 -19 -29 22
c-54 41 -76 70 -90 119 -8 26 -22 59 -31 73 -21 31 -6 35 21 5 10 -12 50 -37
89 -56 38 -18 74 -38 81 -44 15 -12 153 -58 175 -59 9 0 34 -13 57 -30 51 -37
147 -77 204 -86 59 -9 76 -19 92 -57 14 -31 32 -51 158 -171 31 -30 59 -65 63
-78 4 -13 23 -49 43 -82 29 -49 35 -69 38 -130 2 -39 1 -64 -2 -56 -24 61 -46
99 -73 124 -17 17 -31 35 -31 41 0 20 -37 47 -87 64 -61 21 -113 52 -113 67 0
18 36 27 78 20 27 -4 31 -3 17 4 -46 20 -96 11 -157 -30 -33 -22 -64 -40 -68
-40 -8 0 -15 27 -28 110 -7 43 -8 44 -14 15 -3 -16 0 -88 8 -160 15 -145 11
-503 -7 -617 -6 -37 -7 -72 -3 -79 4 -6 11 -89 15 -183 12 -235 24 -333 47
-386 11 -25 23 -64 27 -87 6 -40 5 -42 -21 -45 -40 -4 -39 -20 3 -72 21 -25
57 -70 80 -100 45 -58 91 -88 191 -125 44 -17 74 -22 102 -18 45 6 49 3 18
-14 -47 -25 -137 -39 -181 -28 -23 6 -66 15 -95 20 -30 5 -76 21 -103 34 -29
15 -65 25 -92 25 -48 0 -102 32 -93 55 6 16 -103 104 -174 140 -30 15 -78 47
-106 71 -44 38 -57 44 -97 44 -25 0 -48 -4 -52 -9 -8 -14 -73 18 -126 62 -25
20 -52 37 -60 37 -8 0 -23 7 -33 15 -11 8 -29 15 -39 15 -22 0 -87 37 -87 50
0 5 18 11 41 15 30 5 43 13 49 31 5 13 15 24 21 24 8 0 10 22 7 70 -4 68 -3
69 17 55 11 -8 43 -30 70 -49 28 -18 63 -48 78 -66 34 -40 43 -35 18 11 -26
49 -157 149 -213 162 -14 4 -50 28 -80 54 -106 95 -155 131 -226 167 -39 20
-74 36 -78 36 -8 0 27 -28 80 -64 43 -29 43 -29 -66 -26 -37 1 -76 -1 -86 -4
-26 -9 -46 -59 -38 -96 6 -35 5 -35 -37 -14 -50 25 -75 53 -120 131 -22 40
-49 76 -60 79 -12 4 -16 11 -12 22 13 32 20 193 13 290 -8 110 -40 268 -64
315 -9 16 -25 54 -35 84 -10 30 -28 68 -40 85 l-22 30 -12 -22 c-7 -13 -14
-18 -16 -12 -5 12 -79 -19 -97 -41 -16 -19 -18 -130 -4 -187 6 -25 16 -79 22
-120 6 -41 18 -102 26 -135 8 -33 19 -96 24 -140 26 -241 56 -321 148 -397 38
-32 32 -35 -15 -10 -41 22 -264 238 -293 283 -17 27 -20 29 -15 9 20 -70 88
-150 245 -287 47 -41 115 -108 153 -149 l67 -75 0 -109 c0 -62 4 -111 10 -115
6 -3 10 -26 10 -50 0 -24 4 -55 9 -68 17 -45 -5 -92 -74 -158 -59 -58 -88 -95
-158 -206 -15 -24 -33 -43 -40 -43 -7 0 -31 -18 -52 -41 -49 -50 -72 -62 -155
-83 -59 -15 -69 -15 -129 0 -77 19 -163 58 -187 86 -17 18 -12 17 51 -7 119
-44 145 -47 218 -25 59 18 127 67 127 91 0 4 17 28 39 53 21 24 59 82 84 129
26 46 53 90 61 96 21 17 39 143 32 212 -7 63 2 75 28 37 19 -27 20 -22 5 18
-6 16 -39 53 -73 82 -33 29 -90 78 -126 110 -36 32 -92 73 -125 91 -33 19 -67
42 -75 52 -8 10 -34 21 -58 25 -39 6 -44 5 -49 -16 -5 -20 -11 -17 -65 41 -59
63 -60 65 -53 109 21 142 23 184 15 283 -12 151 -20 195 -41 242 -10 22 -19
50 -19 62 0 11 -13 32 -29 46 -25 21 -35 24 -70 17 l-41 -7 34 38 c19 21 42
53 52 71 9 18 28 46 43 62 21 23 22 27 6 18 -12 -6 -54 -47 -95 -92 -40 -45
-109 -107 -152 -137 -43 -30 -80 -59 -84 -64 -3 -5 -22 -18 -42 -28 -119 -62
-372 -318 -372 -378 0 -7 -12 -32 -27 -56 -19 -30 -27 -57 -29 -97 -3 -64 -11
-90 -28 -90 -7 0 -19 -12 -26 -28 -8 -15 -19 -34 -25 -42 -6 -8 -17 -35 -24
-60 -7 -25 -16 -58 -21 -75 -19 -63 -50 -273 -50 -340 0 -73 21 -137 53 -164
23 -19 21 -6 -5 29 -13 19 -23 49 -26 85 l-4 55 30 -11 c36 -12 99 11 145 55
20 18 39 26 64 26 19 0 61 11 92 25 52 24 63 35 119 120 77 115 108 189 117
278 12 110 25 76 25 -65 l0 -133 -65 -115 c-69 -122 -124 -183 -222 -246 -29
-19 -53 -38 -53 -44 0 -5 -13 -24 -29 -42 -17 -19 -31 -51 -36 -76 -6 -36 -12
-45 -40 -56 -30 -13 -39 -12 -96 8 -98 35 -127 54 -220 146 -77 78 -163 139
-214 155 -11 4 6 -8 38 -26 64 -36 142 -115 164 -168 19 -45 11 -49 -17 -9
-36 53 -104 98 -200 133 -53 19 -105 46 -127 65 -45 40 -115 72 -137 64 -14
-5 -14 -2 -2 34 8 22 23 53 33 68 25 39 43 93 43 131 0 28 4 33 36 42 20 6 44
17 53 26 9 8 61 46 116 84 106 73 138 101 187 166 21 29 15 24 -24 -16 -45
-48 -133 -108 -143 -97 -9 10 46 190 69 223 14 22 40 60 56 84 31 46 60 131
60 175 0 16 8 29 23 37 12 6 31 20 43 30 11 10 47 30 80 43 36 16 50 25 37 26
-28 0 -120 -34 -142 -53 -9 -8 -41 -25 -71 -38 -30 -12 -68 -33 -83 -46 -16
-13 -62 -39 -102 -59 -62 -30 -84 -48 -135 -111 -66 -80 -146 -218 -142 -244
1 -8 -9 -41 -22 -72 -14 -31 -27 -67 -30 -79 -6 -35 -18 -62 -32 -73 -14 -12
-44 -142 -44 -190 0 -19 9 -71 19 -117 28 -121 32 -148 22 -148 -5 0 -17 33
-26 72 -9 40 -23 81 -32 90 -24 27 -23 216 1 287 15 42 17 58 8 72 -7 10 -12
25 -12 33 0 18 -52 56 -75 56 -16 0 -17 10 -12 108 l6 107 -20 -90 c-18 -81
-18 -100 -8 -183 6 -51 18 -99 25 -106 15 -16 10 -46 -20 -106 -22 -43 -81
-189 -127 -315 -41 -113 -140 -302 -189 -363 -28 -34 -50 -67 -50 -72 0 -6 -6
-10 -12 -10 -7 0 -39 -25 -70 -55 -40 -38 -60 -66 -69 -97 -16 -57 -29 -70
-29 -30 0 49 30 101 125 217 43 52 77 127 94 205 11 49 -7 201 -35 299 -22 76
-68 164 -110 211 -20 22 -47 66 -60 97 -29 72 -32 54 -3 -22 12 -31 34 -71 50
-89 34 -40 73 -116 89 -175 15 -57 7 -62 -23 -14 -33 52 -83 93 -112 93 -20 0
-25 8 -36 53 -6 28 -19 63 -27 77 -46 75 -83 128 -97 140 -10 8 -41 51 -71 95
-30 45 -65 92 -79 105 -14 13 -25 27 -25 32 0 9 -115 144 -161 189 -15 15 -50
34 -78 44 -41 13 -51 21 -51 39 0 12 -7 31 -15 42 -8 10 -15 27 -15 38 0 23
-94 133 -121 141 -16 5 -19 12 -14 32 6 27 -2 83 -13 83 -4 -1 -19 -28 -35
-62 -15 -33 -29 -59 -31 -57 -7 7 18 102 34 129 10 18 14 52 12 120 -1 89 -1
93 13 65 8 -16 14 -38 15 -48 0 -10 5 -15 10 -12 16 10 5 332 -11 370 -19 43
-163 241 -219 300 -25 28 -59 69 -74 91 -15 23 -44 55 -65 72 -22 17 -51 55
-65 84 -14 28 -26 45 -26 37 1 -30 39 -96 95 -164 57 -68 95 -140 130 -240 17
-50 30 -221 40 -545 2 -80 7 -161 10 -180 3 -19 5 -56 5 -82 -1 -26 6 -61 15
-78 9 -17 13 -35 10 -40 -3 -5 8 -30 25 -56 16 -26 30 -52 30 -58 0 -5 11 -22
25 -36 l25 -26 -30 -92 c-17 -51 -30 -103 -30 -115 0 -56 -74 -287 -92 -287
-2 0 -3 33 -4 73 -1 39 -6 123 -12 184 -9 98 -15 121 -44 173 -36 67 -52 66
-18 0 13 -26 23 -69 26 -113 l5 -72 -17 33 c-9 17 -22 32 -29 32 -18 0 -161
-139 -200 -195 -37 -53 -52 -83 -109 -210 -21 -47 -33 -88 -30 -101 4 -16 -4
-27 -35 -49 -52 -36 -105 -93 -130 -142 -12 -24 -33 -45 -55 -56 -26 -12 -36
-23 -36 -39 0 -13 -9 -34 -21 -48 l-20 -25 7 38 6 38 -48 -30 c-62 -40 -85
-40 -40 -1 47 42 80 111 72 154 -3 18 -26 56 -50 84 -24 28 -57 72 -72 97 -17
26 -39 48 -54 52 -26 6 -39 14 -125 68 -27 18 -59 35 -70 38 -67 19 -99 38
-136 81 -39 44 -45 48 -80 43 -20 -3 -42 -1 -49 3 -7 4 -24 1 -39 -6 -14 -8
-46 -14 -71 -14 -25 0 -54 -7 -64 -15 -11 -8 -32 -15 -47 -15 -34 0 -38 -6
-32 -47 6 -38 56 -73 104 -73 19 0 29 -5 29 -14 0 -21 -157 -15 -233 8 -55 17
-63 17 -122 2 -35 -9 -78 -16 -94 -16 l-30 0 13 38 c7 20 16 54 20 74 4 20 22
61 41 90 l35 53 -39 -44 c-41 -46 -101 -180 -101 -224 0 -13 -4 -37 -9 -53 -5
-16 -12 -46 -16 -66 -3 -23 -21 -55 -46 -84 -48 -55 -69 -95 -69 -128 0 -17
-8 -29 -27 -38 -15 -7 -30 -24 -34 -38 -5 -23 -9 -20 -35 35 -25 54 -29 57
-32 33 -4 -35 24 -95 56 -116 13 -9 40 -33 59 -54 52 -54 89 -58 161 -13 54
33 100 44 116 28 4 -4 -10 -12 -31 -18 -29 -8 -47 -24 -79 -70 -56 -80 -72
-84 -215 -45 -90 25 -123 30 -166 24 -70 -8 -96 8 -112 73 -14 53 -51 109
-122 183 -26 26 -59 70 -74 98 -33 61 -115 135 -250 225 -151 101 -195 133
-234 170 -20 19 -52 43 -71 52 -19 9 -53 34 -75 56 -24 22 -74 52 -125 74
-102 44 -148 77 -156 113 -10 43 -44 112 -91 185 -25 37 -46 67 -49 67 -2 0
-12 -17 -22 -37 -16 -35 -16 -44 -3 -116 12 -63 13 -88 3 -135 -7 -32 -12 -76
-12 -98 0 -28 -10 -55 -32 -90 -36 -57 -46 -47 -24 27 21 69 20 96 -7 206 -24
93 -49 132 -88 133 -14 0 -21 24 -38 118 -11 64 -22 140 -24 167 -2 28 -4 -2
-5 -65 -2 -127 11 -269 27 -297 6 -10 15 -29 21 -43 12 -31 29 -57 53 -82 17
-18 16 -20 -23 -66 -22 -27 -40 -53 -40 -59 0 -6 -11 -35 -25 -65 -14 -29 -25
-64 -25 -77 0 -13 -11 -36 -25 -53 -14 -16 -46 -73 -72 -126 -26 -53 -54 -101
-60 -105 -7 -4 -13 -14 -13 -21 0 -7 -8 -24 -19 -37 -10 -13 -22 -39 -26 -57
-4 -21 -23 -48 -47 -70 -21 -19 -45 -47 -53 -62 -19 -37 -82 -77 -132 -85 -55
-9 -55 5 0 32 32 15 49 32 61 60 10 21 26 54 36 73 21 42 40 126 40 182 0 23
9 60 19 82 22 46 51 178 51 228 -1 18 -7 44 -14 57 -12 22 -13 20 -9 -25 4
-34 -2 -69 -16 -114 -33 -100 -32 -99 -45 -55 -6 22 -28 73 -49 113 -29 56
-48 79 -83 101 -24 16 -54 40 -65 55 -26 34 -35 33 -48 -5 -17 -48 -33 -25
-91 124 -28 73 -68 157 -89 187 -21 30 -42 70 -46 89 -4 21 -14 35 -27 39 -19
4 -20 11 -15 69 l5 64 -42 27 c-22 15 -43 29 -46 32 -3 3 -25 12 -50 19 -25 7
-53 20 -62 28 -16 14 -27 10 -124 -37 -58 -29 -124 -68 -145 -87 -53 -48 -51
-23 4 58 60 88 65 101 22 54 -59 -63 -110 -136 -130 -185 -10 -25 -25 -53 -33
-62 -18 -21 -10 -34 25 -41 32 -7 132 38 141 63 7 19 71 85 76 79 10 -10 -43
-116 -82 -162 -24 -29 -53 -68 -65 -87 -13 -20 -45 -47 -77 -64 -30 -17 -80
-55 -110 -87 -30 -31 -77 -71 -103 -89 -57 -38 -153 -132 -172 -169 -7 -14
-29 -50 -49 -80 -20 -29 -36 -58 -36 -65 0 -20 -41 -58 -57 -52 -19 8 -39 -42
-48 -119 -9 -69 -20 -95 -40 -95 -25 0 -65 23 -65 38 0 14 -13 13 -52 -3 -20
-8 -33 33 -45 140 l-7 70 -7 -85 c-8 -108 6 -143 96 -229 36 -35 65 -70 65
-78 0 -29 39 -69 92 -95 71 -35 153 -44 214 -23 26 8 48 14 50 12 2 -2 -22
-17 -53 -33 -54 -27 -66 -28 -170 -28 l-113 1 -38 35 c-69 62 -151 119 -216
147 -34 16 -72 41 -84 55 -25 33 -84 74 -118 82 -30 8 -43 31 -36 64 15 66 6
115 -36 201 -23 48 -42 93 -42 101 0 7 -13 29 -30 48 -16 19 -29 40 -30 46 0
7 -12 20 -27 29 -16 10 -32 24 -36 32 -13 22 -84 63 -109 63 -13 0 -41 10 -63
23 -30 17 -41 31 -48 60 -11 46 -4 67 20 61 31 -7 45 11 45 58 0 28 -10 67
-26 100 -14 30 -26 60 -26 67 0 6 -34 46 -76 89 -42 42 -80 87 -85 98 -4 13
-31 33 -62 48 -47 22 -117 89 -105 101 2 2 24 -3 48 -11 50 -18 219 -31 185
-15 -11 5 -33 10 -48 10 -16 1 -69 15 -118 32 -66 23 -101 30 -132 26 -69 -8
-119 -22 -164 -45 -23 -12 -54 -22 -67 -22 -18 0 -30 -9 -41 -30 -8 -16 -26
-32 -38 -35 -13 -4 -42 -35 -71 -76 l-48 -70 9 -164 9 -164 36 -53 c54 -81 54
-85 6 -132 -24 -23 -54 -54 -67 -69 -13 -15 -51 -43 -85 -63 -66 -39 -88 -53
-197 -129 -90 -62 -104 -90 -23 -45 49 27 74 34 152 40 67 6 98 13 113 25 10
10 22 16 24 13 11 -10 -56 -57 -88 -62 -18 -3 -48 -8 -68 -11 -27 -4 -49 -19
-83 -55 -46 -49 -46 -50 -46 -118 0 -54 5 -79 24 -113 13 -24 29 -60 35 -80
12 -37 71 -89 102 -89 8 0 23 -6 32 -12 15 -11 10 -13 -30 -12 -79 1 -140 22
-174 61 -17 20 -34 32 -38 27 -5 -5 -16 -30 -26 -57 -25 -65 -83 -117 -133
-117 -60 0 -71 16 -16 25 50 7 102 49 103 83 0 9 3 52 7 94 8 89 -2 124 -50
178 -73 81 -71 78 -51 100 17 19 17 22 1 62 -42 103 -63 133 -116 171 l-25 18
29 -6 c16 -4 48 -15 70 -26 22 -10 41 -17 43 -15 10 10 -69 56 -136 80 -62 22
-84 26 -133 20 -65 -7 -64 -9 -59 83 3 56 -25 204 -51 267 -14 34 -24 84 -28
151 l-6 100 -2 -105 c-2 -80 3 -122 18 -175 11 -39 25 -126 30 -195 8 -114 12
-131 43 -191 19 -36 38 -80 42 -97 3 -18 18 -41 31 -51 14 -11 24 -22 22 -25
-2 -3 9 -22 25 -40 46 -58 30 -63 -25 -9 -29 28 -68 58 -86 67 -18 10 -36 24
-39 32 -3 7 -11 14 -18 14 -8 0 -35 44 -61 98 -25 53 -56 111 -68 127 -12 17
-34 51 -49 77 -18 32 -41 53 -70 68 -60 31 -79 59 -66 101 14 52 13 141 -4
180 -8 20 -34 51 -57 70 -24 19 -69 60 -100 92 -31 31 -62 57 -67 57 -6 0 -60
47 -120 105 -59 58 -116 105 -126 105 -11 0 -30 9 -44 20 -17 13 -41 20 -68
20 l-42 0 -6 51 c-8 61 -29 98 -67 112 -38 14 -51 40 -61 117 -6 55 -24 165
-43 270 -2 14 -3 -2 -1 -35 19 -313 27 -478 29 -575 4 -144 2 -137 25 -143 18
-4 20 -22 12 -80 -1 -4 -18 -26 -40 -50 -38 -41 -71 -104 -71 -135 0 -8 -11
-38 -25 -67 -14 -28 -31 -79 -37 -113 -13 -68 -28 -65 -28 5 0 29 -7 50 -24
70 -13 15 -31 57 -39 93 l-16 65 5 -70 c4 -43 13 -80 23 -95 10 -14 21 -46 24
-72 4 -26 18 -65 32 -87 54 -80 253 -236 327 -254 15 -4 36 -22 49 -43 12 -20
34 -44 50 -53 46 -28 159 -138 159 -155 0 -9 15 -33 34 -53 18 -21 41 -54 51
-73 10 -19 33 -59 53 -88 33 -51 85 -198 75 -215 -3 -5 -14 9 -25 30 -83 158
-298 409 -390 456 -30 15 -60 27 -65 27 -6 0 -54 18 -107 40 -53 22 -102 40
-109 40 -8 0 -33 14 -55 30 -23 17 -45 29 -49 28 -5 -2 -30 20 -56 47 l-49 50
28 -50 c15 -27 55 -80 88 -116 70 -76 155 -223 168 -289 5 -25 12 -83 17 -130
13 -127 36 -197 76 -230 13 -11 12 -6 -4 21 -16 27 -45 169 -35 169 2 0 17
-19 34 -42 16 -24 53 -61 81 -83 27 -22 89 -78 137 -125 109 -106 218 -164
342 -182 72 -10 84 -9 138 11 34 12 82 21 113 21 60 -1 51 -13 -18 -24 -23 -3
-59 -17 -79 -31 -47 -32 -87 -39 -198 -33 -74 4 -105 11 -166 38 -41 18 -82
39 -91 46 -8 8 -36 20 -62 28 -30 9 -72 36 -117 75 -39 34 -76 61 -82 61 -17
0 -169 104 -199 137 -17 17 -30 45 -34 73 -4 25 -16 60 -27 78 -13 20 -18 41
-14 56 4 15 -1 32 -13 47 -10 13 -35 58 -56 99 -20 41 -48 89 -61 107 -13 17
-24 39 -24 47 0 9 -33 53 -74 98 -41 46 -73 84 -71 86 8 8 112 -41 138 -65 26
-25 28 -26 18 -5 -14 26 -76 73 -122 92 -26 11 -35 11 -59 -3 -15 -10 -42 -17
-59 -17 -40 0 -58 37 -41 83 5 17 10 64 10 107 0 62 -4 80 -20 98 -26 27 -25
58 1 80 35 29 66 103 73 177 4 39 18 101 32 138 13 38 24 77 24 88 0 11 7 30
15 43 27 41 32 153 23 466 -7 236 -13 313 -24 341 -14 33 -14 41 0 83 9 26 16
60 16 76 0 35 16 40 25 8 4 -13 21 -54 37 -93 17 -38 34 -92 39 -120 7 -45 8
-43 4 19 -6 91 -48 216 -90 266 -26 31 -34 52 -40 100 -5 44 -12 64 -26 73
-27 17 -25 22 27 58 26 18 52 46 60 65 20 47 17 55 -6 17 -10 -18 -38 -42 -60
-53 -88 -45 -192 -171 -220 -267 -7 -24 -17 -43 -22 -43 -5 0 -7 8 -4 18 3 9
10 46 16 81 6 36 20 82 31 103 21 42 101 128 118 128 6 0 11 6 11 13 0 7 13
26 29 41 16 15 31 41 35 57 4 19 17 36 40 50 36 21 57 56 76 129 6 25 18 50
26 56 21 16 61 74 79 112 43 92 34 262 -21 385 -29 65 -48 174 -37 215 6 23 8
24 11 7 1 -11 12 -47 24 -80z"/>
<path d="M11552 6746 c-30 -92 -29 -155 3 -190 14 -15 25 -32 25 -37 0 -26 93
-204 120 -229 17 -15 30 -34 30 -41 0 -7 11 -24 24 -38 28 -30 67 -103 166
-313 74 -156 82 -191 59 -271 -6 -21 -12 -86 -13 -145 -2 -73 -8 -120 -20
-148 -16 -38 -16 -45 -2 -78 12 -28 23 -38 46 -43 18 -3 34 -12 37 -19 6 -16
41 -18 77 -4 29 10 54 82 58 160 3 69 -42 314 -74 405 -6 17 -14 59 -19 95 -7
48 -18 77 -43 115 -45 65 -74 132 -96 225 -32 130 -74 208 -139 257 l-36 27
39 -43 c41 -47 65 -94 90 -179 l15 -53 -77 80 c-42 44 -84 87 -92 95 -8 9 -37
35 -63 58 -27 23 -53 51 -59 62 -6 12 -12 78 -12 151 -1 72 -6 138 -12 148 -9
16 -14 9 -32 -47z"/>
<path d="M7442 6625 c-16 -24 -42 -84 -57 -132 -15 -49 -37 -104 -48 -123 -22
-38 -57 -80 -66 -80 -10 0 -31 125 -32 192 -1 58 -2 60 -10 28 -5 -19 -8 -96
-7 -170 1 -74 -4 -178 -11 -230 -20 -150 -2 -399 33 -440 10 -12 11 -64 4
-265 -4 -137 -11 -295 -14 -350 -3 -55 -1 -125 4 -155 9 -52 10 -50 11 50 1
58 8 136 16 175 8 38 15 95 15 125 l1 55 22 -30 c12 -16 34 -41 49 -55 14 -14
34 -45 44 -70 27 -69 69 -135 85 -135 26 0 55 119 58 244 2 102 5 118 24 138
12 12 28 23 34 23 7 0 34 15 60 34 27 19 77 54 113 78 67 45 101 88 221 275
81 128 83 136 76 267 -7 109 -25 187 -61 252 -20 38 -20 31 4 -44 11 -35 20
-85 20 -110 l0 -47 -22 32 c-24 34 -141 103 -174 103 -54 0 -91 20 -109 60
-10 22 -26 47 -36 56 -32 29 -23 37 34 30 l52 -6 -30 17 c-16 9 -61 24 -100
33 -75 17 -74 16 -121 120 -8 19 -23 50 -33 68 l-19 33 -30 -46z"/>
<path d="M8051 6571 c30 -10 93 -43 138 -74 46 -32 89 -57 95 -57 20 0 130
-56 166 -84 19 -16 -2 7 -46 51 -53 50 -111 94 -165 124 -74 41 -93 47 -164
52 l-80 6 56 -18z"/>
<path d="M7241 6564 c0 -11 3 -14 6 -6 3 7 2 16 -1 19 -3 4 -6 -2 -5 -13z"/>
<path d="M15041 6490 c-1 -14 -12 -50 -25 -80 -13 -30 -46 -107 -73 -170 -27
-63 -58 -153 -67 -200 -16 -78 -45 -181 -97 -347 -19 -63 -24 -93 -13 -93 3 0
18 8 32 19 15 10 50 30 79 44 28 15 68 47 88 72 l37 45 -5 88 c-3 53 -11 101
-21 120 -24 47 -5 219 41 374 19 64 33 125 30 135 -3 13 -5 11 -6 -7z"/>
<path d="M8620 6395 c0 -9 62 -36 73 -32 7 3 -5 12 -25 21 -39 17 -48 19 -48
11z"/>
<path d="M5541 6360 c-8 -13 -27 -38 -42 -54 -15 -17 -53 -75 -83 -130 -57
-105 -87 -141 -178 -216 -29 -24 -74 -68 -98 -98 -25 -29 -76 -84 -113 -122
-62 -64 -68 -73 -65 -106 3 -35 12 -46 50 -58 28 -8 10 -33 -28 -41 -19 -3
-77 -3 -128 1 -106 8 -139 -2 -80 -22 22 -8 47 -14 57 -14 10 0 36 -18 58 -40
37 -38 44 -40 102 -42 90 -2 95 -1 148 33 33 22 53 44 64 71 17 42 62 94 73
84 3 -4 2 -10 -4 -14 -5 -4 -32 -53 -58 -109 -41 -84 -54 -104 -80 -114 -17
-7 -43 -21 -58 -31 -40 -27 -106 -50 -168 -58 l-55 -7 60 -1 c33 -1 76 2 96 7
33 8 35 7 31 -14 -2 -13 1 -26 6 -29 6 -4 8 -21 6 -39 -5 -27 -2 -34 18 -42
32 -14 105 -129 119 -189 6 -29 23 -62 37 -77 15 -15 42 -56 62 -91 60 -112
148 -214 205 -239 45 -19 54 -20 105 -9 57 13 124 42 135 60 3 5 -9 1 -27 -9
-44 -26 -153 -35 -193 -18 l-30 14 32 16 c18 10 37 17 44 17 36 0 242 183 304
269 22 32 60 77 83 102 50 50 92 129 92 171 0 44 45 62 155 63 70 0 116 7 210
33 66 19 138 43 161 54 39 20 80 20 130 1 23 -9 17 53 -16 160 -33 104 -53
127 -123 143 -32 7 -67 -17 -67 -47 0 -27 -18 -32 -30 -9 -7 13 -10 51 -7 94
3 67 8 79 52 147 26 41 67 96 91 123 24 26 44 54 44 61 0 6 10 20 21 31 12 10
37 51 56 89 33 66 87 167 126 234 10 17 16 31 15 31 -2 0 -37 -46 -78 -102
-41 -56 -97 -123 -124 -150 -45 -45 -52 -48 -85 -42 -19 4 -54 15 -76 25 -23
10 -66 21 -97 25 l-55 6 -47 -46 c-33 -32 -56 -46 -75 -46 -20 0 -45 -17 -93
-62 -86 -84 -168 -181 -168 -200 0 -20 -36 -52 -44 -39 -4 6 -21 5 -48 -5 -22
-7 -57 -14 -77 -14 -20 0 -52 -5 -73 -10 -60 -17 -223 43 -249 91 -9 18 -7 18
29 -1 50 -26 184 -31 255 -9 39 13 54 24 83 68 20 29 43 73 51 98 8 24 26 51
38 59 29 19 55 83 54 132 l-1 37 -9 -32 c-10 -35 -29 -54 -29 -29 0 9 -4 16
-9 16 -4 0 -37 22 -72 49 -35 27 -74 52 -86 56 -13 3 -46 22 -73 40 -49 33
-68 35 -97 12 -7 -5 -13 -24 -13 -41 -1 -28 -2 -29 -12 -12 -6 11 -14 45 -17
75 -6 54 -7 55 -20 31z"/>
<path d="M8726 6290 c-4 -26 -13 -53 -20 -59 -8 -7 -17 -32 -20 -56 -6 -35
-13 -48 -39 -64 -57 -35 -107 -102 -107 -142 0 -12 -18 -46 -41 -75 -23 -30
-48 -79 -59 -113 l-18 -61 30 0 c48 0 109 21 158 54 58 39 179 162 245 250
l52 68 -19 52 c-10 28 -29 60 -42 71 -12 11 -37 41 -56 67 -45 65 -56 66 -64
8z"/>
<path d="M8904 6289 c8 -20 16 -74 17 -122 2 -78 -1 -90 -26 -134 -61 -103
-233 -359 -256 -379 -13 -11 -55 -38 -94 -59 -38 -20 -86 -51 -106 -69 -20
-17 -44 -38 -55 -47 -10 -9 -35 -35 -54 -59 -19 -24 -53 -64 -75 -90 -22 -26
-64 -77 -94 -113 -30 -37 -62 -67 -71 -67 -10 0 -24 -16 -33 -40 -10 -22 -25
-58 -34 -81 l-17 -41 80 -80 c43 -44 100 -102 126 -128 39 -39 60 -51 112 -65
36 -10 75 -15 87 -12 45 12 0 -15 -82 -49 -86 -36 -62 -37 46 -3 96 31 144 84
226 253 38 78 83 162 100 188 23 35 33 66 42 125 5 43 15 81 20 84 23 16 109
195 127 264 39 153 49 230 56 422 7 169 -6 273 -37 313 l-19 25 14 -36z"/>
<path d="M7052 6210 c-4 -105 -51 -350 -68 -350 -7 0 -67 70 -88 103 -11 16
-23 46 -27 66 -8 33 -8 32 -5 -11 4 -52 65 -167 145 -273 40 -52 47 -69 58
-140 6 -44 15 -98 18 -121 6 -31 2 -53 -14 -90 l-22 -48 27 24 c46 43 53 74
39 165 -7 44 -16 154 -20 245 -4 91 -12 183 -18 205 -6 22 -13 94 -17 160 -4
66 -7 95 -8 65z"/>
<path d="M5961 6224 c0 -11 3 -14 6 -6 3 7 2 16 -1 19 -3 4 -6 -2 -5 -13z"/>
<path d="M4870 6143 c-127 -76 -152 -108 -204 -265 -35 -104 -25 -109 20 -9
21 48 89 130 233 284 19 20 33 37 31 36 -3 0 -39 -21 -80 -46z"/>
<path d="M14551 6057 c-11 -18 -32 -44 -46 -57 -37 -34 -55 -73 -54 -112 l1
-33 8 28 c5 16 25 43 44 60 25 22 42 50 55 90 10 31 17 57 15 57 -1 0 -11 -15
-23 -33z"/>
<path d="M15283 6040 c0 -25 2 -35 4 -22 2 12 2 32 0 45 -2 12 -4 2 -4 -23z"/>
<path d="M16691 5717 c49 -47 81 -69 119 -82 29 -9 77 -38 108 -63 l56 -46
-44 53 c-30 34 -77 71 -137 107 -50 30 -94 54 -98 54 -4 0 -21 9 -38 21 -18
11 -2 -8 34 -44z"/>
<path d="M3671 5654 c0 -11 3 -14 6 -6 3 7 2 16 -1 19 -3 4 -6 -2 -5 -13z"/>
<path d="M9052 5520 c0 -14 2 -19 5 -12 2 6 2 18 0 25 -3 6 -5 1 -5 -13z"/>
<path d="M7153 5232 c-38 -56 -53 -93 -53 -132 0 -38 20 -50 21 -13 0 25 2 24
13 -12 6 -22 19 -41 28 -43 13 -3 17 10 23 70 4 40 5 96 3 125 l-3 51 -32 -46z"/>
<path d="M14705 5229 c-130 -54 -155 -70 -182 -117 -14 -24 -44 -57 -66 -73
-22 -16 -37 -29 -33 -29 19 0 85 43 116 75 19 20 71 59 115 86 74 46 137 90
125 88 -3 -1 -36 -14 -75 -30z"/>
<path d="M13294 5098 c-26 -35 -58 -88 -71 -118 -17 -38 -46 -75 -93 -120 -77
-72 -94 -113 -50 -118 17 -2 34 6 52 25 31 33 98 156 98 182 0 9 24 55 53 102
71 114 69 109 63 109 -2 0 -26 -28 -52 -62z"/>
<path d="M1731 4994 c0 -11 3 -14 6 -6 3 7 2 16 -1 19 -3 4 -6 -2 -5 -13z"/>
<path d="M2808 4860 c-4 -19 -10 -61 -13 -93 -7 -63 -10 -58 90 -147 l28 -25
-13 25 c-7 14 -23 36 -35 50 -22 25 -42 103 -48 185 l-3 40 -6 -35z"/>
<path d="M17036 4676 c2 -93 5 -221 6 -285 1 -107 2 -111 9 -51 19 171 22 239
9 287 -7 26 -17 86 -21 133 -5 60 -6 36 -3 -84z"/>
<path d="M8184 4646 c11 -9 27 -16 35 -15 14 0 14 1 1 6 -8 3 -24 10 -35 15
-20 9 -20 9 -1 -6z"/>
<path d="M3886 4608 c7 -45 -22 -90 -78 -119 -54 -28 -54 -38 0 -22 120 36
142 67 97 138 l-25 40 6 -37z"/>
<path d="M14131 4543 c-1 -39 -5 -74 -10 -78 -5 -3 -17 -28 -26 -55 -10 -31
-36 -71 -66 -104 -27 -30 -49 -62 -49 -72 -1 -18 -1 -18 -16 1 -8 11 -12 26
-8 35 7 18 24 143 19 148 -1 2 -8 -21 -15 -50 -6 -29 -16 -63 -22 -75 -13 -27
11 -98 48 -142 13 -16 24 -33 24 -39 0 -5 7 -15 15 -22 12 -10 17 -5 29 24 8
20 22 78 31 129 9 50 26 117 37 147 25 66 33 144 20 190 -9 32 -10 28 -11 -37z"/>
<path d="M8539 4452 c22 -41 119 -115 206 -157 50 -24 106 -54 124 -66 63 -42
22 -1 -72 72 -51 39 -119 85 -152 101 -33 17 -73 40 -89 51 l-28 20 11 -21z"/>
<path d="M10652 4405 c7 -7 143 -36 163 -34 6 0 -7 7 -28 14 -44 17 -145 31
-135 20z"/>
<path d="M15780 4085 c0 -5 5 -17 10 -25 5 -8 10 -10 10 -5 0 6 -5 17 -10 25
-5 8 -10 11 -10 5z"/>
<path d="M11000 4027 c0 -8 3 -17 8 -21 4 -4 12 -22 19 -39 7 -19 12 -24 12
-14 1 20 -25 87 -33 87 -4 0 -6 -6 -6 -13z"/>
<path d="M9431 3954 c0 -11 3 -14 6 -6 3 7 2 16 -1 19 -3 4 -6 -2 -5 -13z"/>
</g>
</svg>
